<mxfile host="app.diagrams.net" modified="2023-08-17T02:43:39.922Z" agent="Mozilla/5.0 (Windows NT 10.0; Win64; x64) AppleWebKit/537.36 (KHTML, like Gecko) Chrome/115.0.0.0 Safari/537.36" version="21.6.8" etag="O4Afmso6T_SkNe6QmK0l" type="github">
  <diagram name="페이지-1" id="jEqTV79KLIluIE3mg7o3">
    <mxGraphModel>
      <root>
        <mxCell id="0" />
        <mxCell id="1" parent="0" />
      </root>
    </mxGraphModel>
  </diagram>
</mxfile>
